# xmcd CD database file generated by MAGIX-FreeDB-MusicFinder_base v2.0beta1
# 
# Track frame offsets:
#      150
#      19375
#      44175
#      59862
#      77100
#      94687
#      111112
#      127650
#      142937
#      156112
#      172825
#      201662
#      218875
#      247137
#      264975
#      281300
#      298275
#      314137
#      332162
# 
# Disc length: 4660 seconds
# 
# Revision: 16 
# Processed by: cddbd v1.5.2PL0 Copyright (c) Steve Scherf et al.
# Submitted via: MAGIX-FreeDB-MusicFinder_base v2.0beta1
# 
DISCID=2e123213
DTITLE=Various Artist - Dream Dance Vol. 10 - CD 2
DYEAR=1998
DGENRE=Trance
TTITLE0=DJ Tonka - She Knows You
TTITLE1=DJ Quicksilver - Timerider
TTITLE2=Orinoko - Vila Nova
TTITLE3=Dial M For Moguai - Beatbox
TTITLE4=Space Frog ft. The Duke - Die Unendlichkeit
TTITLE5=Three Drives On A Vinyl - Greece 2000
TTITLE6=Dolphin's Mind - Dolphin's Mind - Believe In You
TTITLE7=Talla and Resistance D - Hypnotic
TTITLE8=Headroom - Headcrash
TTITLE9=Sosa - Accelerator
TTITLE10=Energy 52 - Café Del Mar
TTITLE11=DJ Visage -  - Formula '98
TTITLE12=Brooklyn Bounce - Contact
TTITLE13=C.M. - Sensation
TTITLE14=Sequential One   - Inspiration Vibes
TTITLE15=Agnelli and Nelson - El Nino
TTITLE16=Plastic Angel - Simulation
TTITLE17=DJ Mo vs. Marc De Clarq  - Eternity
TTITLE18=DJ Wag and MR - Life On Mars
EXTD=by Robert
EXTT0=
EXTT1=
EXTT2=
EXTT3=
EXTT4=
EXTT5=
EXTT6=
EXTT7=
EXTT8=
EXTT9=
EXTT10=
EXTT11=
EXTT12=
EXTT13=
EXTT14=
EXTT15=
EXTT16=
EXTT17=
EXTT18=
PLAYORDER=
